<?xml version="1.0" encoding="UTF-8"?>
<svg id="Layer_1" data-name="Layer 1" xmlns="http://www.w3.org/2000/svg" viewBox="0 0 1202.79 479.91">
  <defs>
    <style>
      .cls-1 {
        fill-rule: evenodd;
      }

      .cls-1, .cls-2 {
        fill: #fff;
      }
    </style>
  </defs>
  <g>
    <path class="cls-2" d="M257.48,107.6l92.78,52.46v32.22l-61.86-20.99v45.17l61.86,8.83v28.87l-61.86,5.37-.28,98.89-30.65,17.03V107.6ZM288.41,216.46l61.86,7.39v30.31"/>
    <g>
      <polygon class="cls-1" points="210.7 103.24 226.55 111.03 226.55 89.74 211.09 80.81 195.62 89.74 195.62 110.72 210.7 103.24"/>
      <g>
        <polygon class="cls-1" points="164.69 160.57 164.69 107.59 133.77 125.45 133.77 171.32 164.69 160.57"/>
        <polygon class="cls-1" points="210.7 144.57 226.55 150.36 226.55 128.54 210.6 121.71 195.62 128.18 195.62 149.81 210.7 144.57"/>
        <polygon class="cls-1" points="102.84 182.07 102.84 143.31 71.91 161.16 71.91 192.83 102.84 182.07"/>
        <polygon class="cls-1" points="210.7 163.84 195.62 168.03 195.62 357.59 164.69 339.73 164.69 176.63 133.77 185.23 133.77 321.88 102.84 304.02 102.84 193.83 71.91 202.43 71.91 321.88 211.09 402.23 226.55 393.3 226.55 168.31 210.7 163.84"/>
      </g>
    </g>
  </g>
  <g>
    <path class="cls-2" d="M423.83,146.78h46.64l18.04,106.04,24.42-106.04h47.3l23.76,105.16,18.04-105.16h46.64l-38.06,155.1h-53.02l-21.34-95.04-21.78,95.04h-53.02l-37.62-155.1Z"/>
    <path class="cls-2" d="M788.15,181.32h-56.1v25.3h49.5v32.78h-49.5v27.94h56.1v34.54h-99.22v-155.1h99.22v34.54Z"/>
    <path class="cls-2" d="M831.49,146.78h105.16v34.32h-62.04v27.28h45.76v32.78h-45.76v60.72h-43.12v-155.1Z"/>
    <path class="cls-2" d="M1075.03,276.58h-55l-8.36,25.3h-45.32l56.54-155.1h49.72l56.32,155.1h-45.54l-8.36-25.3ZM1047.53,193.42l-16.5,50.16h33.22l-16.72-50.16Z"/>
  </g>
  <g>
    <path class="cls-2" d="M475.16,331.14v44.92h-10.94l-18.3-27.71v27.71h-10.94v-44.92h10.94l18.3,27.84v-27.84h10.94Z"/>
    <path class="cls-2" d="M482.45,349.06h28.16v9.09h-28.16v-9.09Z"/>
    <path class="cls-2" d="M536.47,376.52c-9.66,0-17.21-4.8-17.54-13.89h11.65c.32,3.46,2.5,5.12,5.57,5.12s5.25-1.6,5.25-4.22c0-8.32-22.46-3.84-22.33-19.77,0-8.51,6.98-13.25,16.38-13.25s16.38,4.86,16.83,13.44h-11.84c-.19-2.88-2.24-4.61-5.18-4.67-2.62-.06-4.61,1.28-4.61,4.1,0,7.81,22.21,4.29,22.21,19.33,0,7.55-5.89,13.82-16.38,13.82Z"/>
    <path class="cls-2" d="M559.57,331.14h10.94v44.92h-10.94v-44.92Z"/>
    <path class="cls-2" d="M618.83,353.61c0,13.31-9.22,22.46-23.55,22.46h-16.83v-44.92h16.83c14.33,0,23.55,9.09,23.55,22.46ZM594.58,366.6c8.25,0,13.12-4.74,13.12-12.99s-4.86-13.12-13.12-13.12h-5.18v26.11h5.18Z"/>
    <path class="cls-2" d="M652.5,339.91h-16.57v9.09h14.65v8.45h-14.65v9.86h16.57v8.77h-27.52v-44.92h27.52v8.77Z"/>
    <path class="cls-2" d="M670.8,331.14h11.71l6.46,32.7,8-32.7h12.03l7.68,32.7,6.53-32.7h11.78l-11.71,44.92h-13.25l-7.17-29.57-7.42,29.57h-13.25l-11.39-44.92Z"/>
    <path class="cls-2" d="M768.02,339.91h-16.57v9.09h14.65v8.45h-14.65v9.86h16.57v8.77h-27.52v-44.92h27.52v8.77Z"/>
    <path class="cls-2" d="M796.05,376.07h-20.93v-44.92h20.22c9.15,0,14.59,4.54,14.59,11.65,0,5.44-3.26,8.96-7.62,10.24,5.25,1.09,8.64,5.7,8.64,10.82,0,7.42-5.44,12.22-14.91,12.22ZM793.23,339.91h-7.17v9.41h7.17c3.58,0,5.57-1.6,5.57-4.67s-1.98-4.74-5.57-4.74ZM794,357.32h-7.93v9.92h8.06c3.65,0,5.76-1.66,5.76-4.86s-2.24-5.06-5.89-5.06Z"/>
    <path class="cls-2" d="M830.86,331.14h29.25v8.77h-18.3v9.47h13.7v8.51h-13.7v18.17h-10.94v-44.92Z"/>
    <path class="cls-2" d="M893.84,368.13h-16.77l-2.69,7.94h-11.46l16.25-44.92h12.67l16.25,44.92h-11.58l-2.69-7.94ZM885.45,343.24l-5.5,16.45h11.07l-5.57-16.45Z"/>
    <path class="cls-2" d="M933.77,330.63c10.69,0,18.75,6.02,21.31,15.74h-12.03c-1.86-3.84-5.25-5.76-9.41-5.76-6.72,0-11.33,4.99-11.33,12.93s4.61,12.93,11.33,12.93c4.16,0,7.55-1.92,9.41-5.76h12.03c-2.56,9.73-10.62,15.68-21.31,15.68-13.25,0-22.59-9.41-22.59-22.85s9.34-22.91,22.59-22.91Z"/>
    <path class="cls-2" d="M959.37,331.14h34.75v8.77h-11.9v36.16h-10.94v-36.16h-11.9v-8.77Z"/>
    <path class="cls-2" d="M1020.88,376.52c-12.74,0-23.1-9.54-23.1-23.04s10.37-22.97,23.1-22.97,22.97,9.47,22.97,22.97-10.24,23.04-22.97,23.04ZM1020.88,366.53c7.17,0,11.84-5.18,11.84-13.06s-4.67-13.05-11.84-13.05-11.9,5.06-11.9,13.05,4.61,13.06,11.9,13.06Z"/>
    <path class="cls-2" d="M1068.3,331.14c11.01,0,16.51,6.34,16.51,14.14,0,5.63-3.07,10.94-9.98,12.99l10.37,17.79h-12.35l-9.34-16.96h-2.62v16.96h-10.94v-44.92h18.37ZM1067.66,340.23h-6.78v11.14h6.78c4.1,0,6.02-2.11,6.02-5.63,0-3.33-1.92-5.5-6.02-5.5Z"/>
    <path class="cls-2" d="M1088.14,331.14h12.42l8.7,18.81,8.64-18.81h12.29l-15.55,30.08v14.85h-10.94v-14.85l-15.55-30.08Z"/>
  </g>
</svg>