<?xml version="1.0" encoding="UTF-8"?>
<svg id="Layer_1" data-name="Layer 1" xmlns="http://www.w3.org/2000/svg" xmlns:xlink="http://www.w3.org/1999/xlink" viewBox="0 0 299.13 342.24">
  <defs>
    <style>
      .cls-1 {
        fill: url(#Dégradé_sans_nom_6-5);
      }

      .cls-1, .cls-2, .cls-3, .cls-4, .cls-5 {
        fill-rule: evenodd;
      }

      .cls-2 {
        fill: url(#Dégradé_sans_nom_6-4);
      }

      .cls-3 {
        fill: url(#Dégradé_sans_nom_6-2);
      }

      .cls-4 {
        fill: url(#Dégradé_sans_nom_6-3);
      }

      .cls-5 {
        fill: url(#Dégradé_sans_nom_6);
      }

      .cls-6 {
        fill: url(#Dégradé_sans_nom_13);
      }
    </style>
    <linearGradient id="Dégradé_sans_nom_13" data-name="Dégradé sans nom 13" x1="196.66" y1="171.69" x2="289.45" y2="171.69" gradientUnits="userSpaceOnUse">
      <stop offset="0" stop-color="#01abc1"/>
      <stop offset="1" stop-color="#7a7dba"/>
    </linearGradient>
    <linearGradient id="Dégradé_sans_nom_6" data-name="Dégradé sans nom 6" x1="134.81" y1="26.09" x2="165.73" y2="26.09" gradientUnits="userSpaceOnUse">
      <stop offset="0" stop-color="#f3a74e"/>
      <stop offset="1" stop-color="#e94e95"/>
    </linearGradient>
    <linearGradient id="Dégradé_sans_nom_6-2" data-name="Dégradé sans nom 6" x1="72.95" y1="69.63" x2="103.88" y2="69.63" xlink:href="#Dégradé_sans_nom_6"/>
    <linearGradient id="Dégradé_sans_nom_6-3" data-name="Dégradé sans nom 6" y1="66.2" y2="66.2" xlink:href="#Dégradé_sans_nom_6"/>
    <linearGradient id="Dégradé_sans_nom_6-4" data-name="Dégradé sans nom 6" x1="11.09" y1="98.24" x2="42.02" y2="98.24" xlink:href="#Dégradé_sans_nom_6"/>
    <linearGradient id="Dégradé_sans_nom_6-5" data-name="Dégradé sans nom 6" x1="11.09" y1="213.2" y2="213.2" xlink:href="#Dégradé_sans_nom_6"/>
  </defs>
  <path class="cls-6" d="M196.66,37.77l92.78,52.46v32.22l-61.86-20.99v45.17l61.86,8.83v28.87l-61.86,5.37-.28,98.89-30.65,17.03V37.77ZM227.59,146.63l61.86,7.39v30.31"/>
  <g>
    <polygon class="cls-5" points="149.88 33.41 165.73 41.2 165.73 19.91 150.27 10.98 134.81 19.91 134.81 40.89 149.88 33.41"/>
    <g>
      <polygon class="cls-3" points="103.88 90.73 103.88 37.76 72.95 55.62 72.95 101.49 103.88 90.73"/>
      <polygon class="cls-4" points="149.88 74.74 165.73 80.53 165.73 58.71 149.78 51.88 134.81 58.35 134.81 79.98 149.88 74.74"/>
      <polygon class="cls-2" points="42.02 112.24 42.02 73.48 11.09 91.33 11.09 123 42.02 112.24"/>
      <polygon class="cls-1" points="149.88 94.01 134.81 98.2 134.81 287.76 103.88 269.9 103.88 106.8 72.95 115.4 72.95 252.04 42.02 234.19 42.02 124 11.09 132.6 11.09 252.04 150.27 332.4 165.73 323.47 165.73 98.48 149.88 94.01"/>
    </g>
  </g>
</svg>