<?xml version="1.0" encoding="UTF-8"?>
<svg id="Layer_1" data-name="Layer 1" xmlns="http://www.w3.org/2000/svg" viewBox="0 0 440.44 623.78">
  <defs>
    <style>
      .cls-1 {
        fill-rule: evenodd;
      }

      .cls-1, .cls-2 {
        fill: #fff;
      }
    </style>
  </defs>
  <g>
    <path class="cls-2" d="M41.7,449.6h23.32l9.02,53.02,12.21-53.02h23.65l11.88,52.58,9.02-52.58h23.32l-19.03,77.55h-26.51l-10.67-47.52-10.89,47.52h-26.51l-18.81-77.55Z"/>
    <path class="cls-2" d="M223.86,466.87h-28.05v12.65h24.75v16.39h-24.75v13.97h28.05v17.27h-49.61v-77.55h49.61v17.27Z"/>
    <path class="cls-2" d="M245.53,449.6h52.58v17.16h-31.02v13.64h22.88v16.39h-22.88v30.36h-21.56v-77.55Z"/>
    <path class="cls-2" d="M367.3,514.5h-27.5l-4.18,12.65h-22.66l28.27-77.55h24.86l28.16,77.55h-22.77l-4.18-12.65ZM353.55,472.92l-8.25,25.08h16.61l-8.36-25.08Z"/>
  </g>
  <g>
    <path class="cls-2" d="M73.91,554.08v22.46h-5.47l-9.15-13.86v13.86h-5.47v-22.46h5.47l9.15,13.92v-13.92h5.47Z"/>
    <path class="cls-2" d="M77.56,563.04h14.08v4.54h-14.08v-4.54Z"/>
    <path class="cls-2" d="M104.57,576.77c-4.83,0-8.61-2.4-8.77-6.94h5.82c.16,1.73,1.25,2.56,2.78,2.56s2.62-.8,2.62-2.11c0-4.16-11.23-1.92-11.17-9.89,0-4.25,3.49-6.62,8.19-6.62s8.19,2.43,8.42,6.72h-5.92c-.1-1.44-1.12-2.3-2.59-2.34-1.31-.03-2.3.64-2.3,2.05,0,3.9,11.1,2.14,11.1,9.66,0,3.78-2.94,6.91-8.19,6.91Z"/>
    <path class="cls-2" d="M116.12,554.08h5.47v22.46h-5.47v-22.46Z"/>
    <path class="cls-2" d="M145.75,565.31c0,6.66-4.61,11.23-11.78,11.23h-8.42v-22.46h8.42c7.17,0,11.78,4.54,11.78,11.23ZM133.63,571.81c4.13,0,6.56-2.37,6.56-6.5s-2.43-6.56-6.56-6.56h-2.59v13.06h2.59Z"/>
    <path class="cls-2" d="M162.58,558.47h-8.29v4.54h7.33v4.22h-7.33v4.93h8.29v4.38h-13.76v-22.46h13.76v4.38Z"/>
    <path class="cls-2" d="M171.74,554.08h5.86l3.23,16.35,4-16.35h6.01l3.84,16.35,3.26-16.35h5.89l-5.86,22.46h-6.62l-3.58-14.78-3.71,14.78h-6.62l-5.7-22.46Z"/>
    <path class="cls-2" d="M220.34,558.47h-8.29v4.54h7.33v4.22h-7.33v4.93h8.29v4.38h-13.76v-22.46h13.76v4.38Z"/>
    <path class="cls-2" d="M234.36,576.54h-10.46v-22.46h10.11c4.58,0,7.3,2.27,7.3,5.82,0,2.72-1.63,4.48-3.81,5.12,2.62.54,4.32,2.85,4.32,5.41,0,3.71-2.72,6.11-7.46,6.11ZM232.95,558.47h-3.58v4.7h3.58c1.79,0,2.78-.8,2.78-2.34s-.99-2.37-2.78-2.37ZM233.33,567.17h-3.97v4.96h4.03c1.82,0,2.88-.83,2.88-2.43s-1.12-2.53-2.94-2.53Z"/>
    <path class="cls-2" d="M251.77,554.08h14.62v4.38h-9.15v4.74h6.85v4.26h-6.85v9.09h-5.47v-22.46Z"/>
    <path class="cls-2" d="M283.25,572.58h-8.38l-1.34,3.97h-5.73l8.13-22.46h6.34l8.13,22.46h-5.79l-1.34-3.97ZM279.06,560.13l-2.75,8.22h5.54l-2.78-8.22Z"/>
    <path class="cls-2" d="M303.22,553.83c5.34,0,9.38,3.01,10.66,7.87h-6.02c-.93-1.92-2.62-2.88-4.7-2.88-3.36,0-5.66,2.5-5.66,6.46s2.3,6.46,5.66,6.46c2.08,0,3.78-.96,4.7-2.88h6.02c-1.28,4.86-5.31,7.84-10.66,7.84-6.62,0-11.29-4.7-11.29-11.42s4.67-11.46,11.29-11.46Z"/>
    <path class="cls-2" d="M316.02,554.08h17.37v4.38h-5.95v18.08h-5.47v-18.08h-5.95v-4.38Z"/>
    <path class="cls-2" d="M346.77,576.77c-6.37,0-11.55-4.77-11.55-11.52s5.18-11.49,11.55-11.49,11.49,4.74,11.49,11.49-5.12,11.52-11.49,11.52ZM346.77,571.78c3.58,0,5.92-2.59,5.92-6.53s-2.34-6.53-5.92-6.53-5.95,2.53-5.95,6.53,2.3,6.53,5.95,6.53Z"/>
    <path class="cls-2" d="M370.48,554.08c5.5,0,8.26,3.17,8.26,7.07,0,2.82-1.54,5.47-4.99,6.5l5.18,8.9h-6.18l-4.67-8.48h-1.31v8.48h-5.47v-22.46h9.18ZM370.17,558.63h-3.39v5.57h3.39c2.05,0,3.01-1.06,3.01-2.82,0-1.66-.96-2.75-3.01-2.75Z"/>
    <path class="cls-2" d="M380.41,554.08h6.21l4.35,9.41,4.32-9.41h6.14l-7.78,15.04v7.42h-5.47v-7.42l-7.78-15.04Z"/>
  </g>
  <g>
    <path class="cls-2" d="M274.83,94.81l92.78,52.46v32.22l-61.86-20.99v45.17l61.86,8.83v28.87l-61.86,5.37-.28,98.89-30.65,17.03V94.81ZM305.75,203.68l61.86,7.39v30.31"/>
    <g>
      <polygon class="cls-1" points="228.04 90.46 243.9 98.24 243.9 76.96 228.43 68.03 212.97 76.96 212.97 97.94 228.04 90.46"/>
      <g>
        <polygon class="cls-1" points="182.04 147.78 182.04 94.81 151.11 112.67 151.11 158.54 182.04 147.78"/>
        <polygon class="cls-1" points="228.04 131.79 243.9 137.58 243.9 115.76 227.94 108.93 212.97 115.4 212.97 137.03 228.04 131.79"/>
        <polygon class="cls-1" points="120.18 169.29 120.18 130.53 89.25 148.38 89.25 180.05 120.18 169.29"/>
        <polygon class="cls-1" points="228.04 151.05 212.97 155.25 212.97 344.81 182.04 326.95 182.04 163.85 151.11 172.45 151.11 309.09 120.18 291.24 120.18 181.05 89.25 189.65 89.25 309.09 228.43 389.45 243.9 380.52 243.9 155.53 228.04 151.05"/>
      </g>
    </g>
  </g>
</svg>